Normalized EMG Linear Envelopes
nRows=177
nColumns=4

endheader
time	 med_gas_r	  soleus_r	 tib_ant_r	
2.93731	  0.082216	  0.158990	  0.032723	
2.99981	  0.082114	  0.165585	  0.030587	
3.0623	  0.083823	  0.164485	  0.029989	
3.1248	  0.087159	  0.159858	  0.030078	
3.1873	  0.092602	  0.155664	  0.031719	
3.24979	  0.099610	  0.152292	  0.032672	
3.31229	  0.102752	  0.155825	  0.032111	
3.37478	  0.101030	  0.162202	  0.032680	
3.43728	  0.098993	  0.169703	  0.033789	
3.49978	  0.098540	  0.177565	  0.035806	
3.56227	  0.098560	  0.178411	  0.037676	
3.62477	  0.097729	  0.178551	  0.039604	
3.68726	  0.096220	  0.180341	  0.041859	
3.74976	  0.094953	  0.186003	  0.043091	
3.81226	  0.095024	  0.193615	  0.044076	
3.87475	  0.097096	  0.196389	  0.045918	
3.93725	  0.101598	  0.198987	  0.051327	
3.99974	  0.110501	  0.202453	  0.061475	
4.06224	  0.123443	  0.202744	  0.077581	
4.12474	  0.134293	  0.207733	  0.098754	
4.18723	  0.142212	  0.215893	  0.117492	
4.24973	  0.151462	  0.226191	  0.127975	
4.31222	  0.165464	  0.235057	  0.137807	
4.37472	  0.179923	  0.246117	  0.148086	
4.43722	  0.199562	  0.266343	  0.156945	
4.49971	  0.232710	  0.296473	  0.165512	
4.56221	  0.278301	  0.343982	  0.180052	
4.6247	  0.323928	  0.397711	  0.200260	
4.6872	  0.365193	  0.445425	  0.228397	
4.7497	  0.417437	  0.491095	  0.267152	
4.81219	  0.468172	  0.533262	  0.308149	
4.87469	  0.489845	  0.559797	  0.339673	
4.93718	  0.513205	  0.564527	  0.355868	
4.99968	  0.540780	  0.558932	  0.361685	
5.06218	  0.546083	  0.545302	  0.369815	
5.12467	  0.565003	  0.534642	  0.389222	
5.18717	  0.589359	  0.545573	  0.418970	
5.24966	  0.595183	  0.571377	  0.443091	
5.31216	  0.603006	  0.598681	  0.458992	
5.37466	  0.600443	  0.627915	  0.479254	
5.43715	  0.603560	  0.660515	  0.492190	
5.49965	  0.605610	  0.689714	  0.489349	
5.56214	  0.597664	  0.719307	  0.497854	
5.62464	  0.589250	  0.742830	  0.530925	
5.68714	  0.576481	  0.742782	  0.573424	
5.74963	  0.595024	  0.720396	  0.610843	
5.81213	  0.644159	  0.702657	  0.648221	
5.87462	  0.665584	  0.716077	  0.678043	
5.93712	  0.672406	  0.757082	  0.697149	
5.99962	  0.661162	  0.795732	  0.689746	
6.06211	  0.655638	  0.816644	  0.644725	
6.12461	  0.643412	  0.830779	  0.591629	
6.1871	  0.618160	  0.841881	  0.551540	
6.2496	  0.593646	  0.850922	  0.545582	
6.3121	  0.580674	  0.842032	  0.581778	
6.37459	  0.598619	  0.825806	  0.640811	
6.43709	  0.615629	  0.812347	  0.702875	
6.49958	  0.646341	  0.811627	  0.744975	
6.56208	  0.654135	  0.825940	  0.744637	
6.62458	  0.635573	  0.837499	  0.684594	
6.68707	  0.622097	  0.841013	  0.607618	
6.74957	  0.622895	  0.850121	  0.551111	
6.81206	  0.645698	  0.861509	  0.536156	
6.87456	  0.657050	  0.875261	  0.562833	
6.93706	  0.660694	  0.872569	  0.616371	
6.99955	  0.645046	  0.842697	  0.671795	
7.06205	  0.620468	  0.780113	  0.714490	
7.12454	  0.603818	  0.723206	  0.730380	
7.18704	  0.602524	  0.695479	  0.723801	
7.24954	  0.623196	  0.708220	  0.698364	
7.31203	  0.643138	  0.750754	  0.670113	
7.37453	  0.647575	  0.796798	  0.665628	
7.43702	  0.644071	  0.813483	  0.682346	
7.49952	  0.623483	  0.802721	  0.708779	
7.56202	  0.611283	  0.790770	  0.749354	
7.62451	  0.617442	  0.793813	  0.775272	
7.68701	  0.626880	  0.797335	  0.772368	
7.7495	  0.650267	  0.796998	  0.741657	
7.812	  0.655162	  0.811305	  0.695395	
7.8745	  0.669456	  0.853751	  0.667979	
7.93699	  0.682543	  0.905315	  0.670305	
7.99949	  0.706802	  0.950126	  0.696685	
8.06198	  0.710898	  0.977488	  0.740408	
8.12448	  0.691231	  0.987675	  0.787668	
8.18698	  0.655627	  0.973361	  0.818785	
8.24947	  0.645661	  0.940940	  0.841684	
8.31197	  0.647577	  0.902574	  0.854867	
8.37446	  0.662137	  0.860284	  0.847374	
8.43696	  0.676055	  0.824163	  0.806563	
8.49946	  0.684297	  0.805063	  0.749408	
8.56195	  0.685968	  0.804672	  0.714307	
8.62445	  0.670898	  0.807542	  0.697701	
8.68694	  0.668416	  0.810085	  0.688798	
8.74944	  0.672032	  0.824902	  0.685338	
8.81194	  0.679864	  0.837337	  0.681735	
8.87443	  0.659770	  0.825857	  0.688368	
8.93693	  0.637895	  0.805622	  0.713747	
8.99942	  0.610843	  0.787561	  0.737002	
9.06192	  0.584868	  0.786716	  0.735908	
9.12442	  0.571665	  0.798812	  0.719707	
9.18691	  0.545083	  0.774814	  0.709307	
9.24941	  0.536166	  0.739397	  0.706279	
9.3119	  0.533855	  0.727117	  0.696360	
9.3744	  0.531889	  0.741681	  0.676197	
9.4369	  0.551013	  0.758715	  0.667915	
9.49939	  0.542277	  0.763401	  0.687944	
9.56189	  0.511207	  0.741062	  0.719666	
9.62438	  0.468505	  0.695446	  0.729102	
9.68688	  0.399417	  0.632576	  0.698585	
9.74938	  0.330329	  0.582728	  0.638523	
9.81187	  0.290514	  0.552869	  0.595484	
9.87437	  0.299550	  0.535669	  0.580447	
9.93686	  0.328763	  0.510473	  0.588394	
9.99936	  0.317835	  0.473449	  0.568989	
10.0619	  0.302185	  0.428598	  0.522483	
10.1244	  0.319441	  0.388252	  0.474453	
10.1868	  0.347212	  0.355632	  0.440145	
10.2493	  0.350127	  0.336158	  0.431680	
10.3118	  0.330802	  0.331225	  0.442196	
10.3743	  0.322108	  0.334280	  0.453254	
10.4368	  0.330040	  0.339169	  0.437054	
10.4993	  0.329118	  0.347226	  0.402439	
10.5618	  0.340312	  0.356165	  0.372816	
10.6243	  0.359615	  0.363888	  0.353888	
10.6868	  0.365545	  0.369788	  0.337550	
10.7493	  0.350078	  0.373496	  0.320004	
10.8118	  0.344795	  0.380955	  0.305137	
10.8743	  0.360577	  0.381678	  0.300299	
10.9368	  0.348032	  0.366218	  0.298666	
10.9993	  0.322763	  0.343559	  0.289988	
11.0618	  0.320091	  0.322318	  0.279172	
11.1243	  0.334080	  0.306992	  0.264260	
11.1868	  0.332707	  0.298534	  0.246945	
11.2493	  0.327337	  0.293381	  0.223646	
11.3118	  0.339543	  0.291986	  0.203443	
11.3743	  0.339342	  0.301444	  0.196634	
11.4368	  0.335358	  0.324324	  0.208348	
11.4993	  0.338011	  0.341887	  0.226736	
11.5618	  0.324978	  0.346664	  0.231529	
11.6243	  0.313745	  0.341122	  0.225224	
11.6868	  0.322112	  0.328986	  0.212959	
11.7492	  0.340767	  0.312393	  0.199787	
11.8117	  0.335556	  0.302491	  0.193199	
11.8742	  0.333277	  0.311213	  0.190346	
11.9367	  0.335418	  0.329648	  0.188331	
11.9992	  0.324187	  0.343961	  0.186262	
12.0617	  0.331061	  0.355852	  0.181585	
12.1242	  0.347064	  0.370349	  0.178281	
12.1867	  0.348653	  0.381854	  0.182422	
12.2492	  0.349033	  0.369313	  0.189291	
12.3117	  0.354919	  0.348892	  0.190362	
12.3742	  0.347953	  0.342231	  0.188520	
12.4367	  0.352270	  0.339924	  0.185598	
12.4992	  0.361361	  0.344358	  0.188594	
12.5617	  0.364076	  0.349570	  0.196237	
12.6242	  0.372860	  0.347201	  0.203498	
12.6867	  0.368401	  0.341991	  0.206775	
12.7492	  0.371652	  0.335153	  0.203308	
12.8117	  0.367738	  0.337445	  0.193638	
12.8742	  0.352804	  0.344907	  0.185962	
12.9367	  0.349275	  0.343106	  0.181875	
12.9992	  0.348369	  0.333166	  0.174269	
13.0617	  0.332579	  0.320939	  0.167911	
13.1242	  0.324437	  0.305241	  0.167011	
13.1867	  0.309838	  0.288635	  0.169118	
13.2492	  0.300635	  0.286775	  0.172221	
13.3116	  0.301880	  0.296521	  0.175799	
13.3741	  0.296556	  0.308275	  0.182773	
13.4366	  0.312359	  0.322338	  0.192502	
13.4991	  0.331174	  0.320532	  0.192948	
13.5616	  0.339011	  0.308635	  0.188794	
13.6241	  0.352730	  0.288455	  0.185300	
13.6866	  0.351778	  0.268536	  0.174753	
13.7491	  0.344595	  0.262380	  0.158162	
13.8116	  0.341706	  0.265952	  0.142150	
13.8741	  0.330609	  0.279548	  0.128855	
13.9366	  0.318075	  0.298879	  0.120566	
